
      <svg xmlns="http://www.w3.org/2000/svg" width="1024" height="1024" viewBox="0 0 1024 1024">
        
      <defs>
        <linearGradient id="grad1" x1="0%" y1="0%" x2="100%" y2="100%">
          <stop offset="0%" style="stop-color:#fbcfe8" />
          <stop offset="100%" style="stop-color:#f472b6" />
        </linearGradient>
      </defs>
    
        <rect x="0" y="0" width="1024" height="1024" rx="0" ry="0" fill="url(#grad1)" />
        <g transform="translate(512, 512) rotate(0)">
           <g transform="translate(-403, -403)">
             <svg xmlns="http://www.w3.org/2000/svg" width="806" height="806" viewBox="0 0 24 24" fill="#ffffff" stroke="#be185d" stroke-width="1.0719602977667493" stroke-linecap="round" stroke-linejoin="round" class="lucide lucide-badge-japanese-yen" fill-opacity="1"><path d="M3.85 8.62a4 4 0 0 1 4.78-4.77 4 4 0 0 1 6.74 0 4 4 0 0 1 4.78 4.78 4 4 0 0 1 0 6.74 4 4 0 0 1-4.77 4.78 4 4 0 0 1-6.75 0 4 4 0 0 1-4.78-4.77 4 4 0 0 1 0-6.76Z"></path><path d="m9 8 3 3v7"></path><path d="m12 11 3-3"></path><path d="M9 12h6"></path><path d="M9 16h6"></path></svg>
           </g>
        </g>
      </svg>
    